<svg width="751" height="751" viewBox="0 0 751 751" fill="none" xmlns="http://www.w3.org/2000/svg">
<rect width="751" height="751" rx="150" fill="url(#paint0_linear_29_11)"/>
<g clip-path="url(#clip0_29_11)">
<path d="M286.166 342.013C266.5 361.677 255.669 387.825 255.669 415.636C255.668 443.447 266.501 469.594 286.165 489.259C312.392 515.485 350.958 525.809 386.817 516.201C398.139 513.167 408.851 508.208 418.499 501.614L484.737 567.852L512.004 540.584L445.778 474.358C457.554 457.191 463.909 436.905 463.909 415.635C463.908 387.825 453.077 361.679 433.412 342.012C407.187 315.786 368.619 305.462 332.761 315.07C315.198 319.776 299.085 329.092 286.166 342.013ZM406.145 369.28C418.527 381.661 425.346 398.125 425.346 415.636C425.347 433.146 418.527 449.609 406.145 461.991C398.006 470.13 387.871 475.995 376.836 478.952C354.244 485.005 329.949 478.506 313.434 461.991C301.052 449.609 294.232 433.147 294.233 415.635C294.233 398.124 301.053 381.661 313.435 369.278C321.572 361.141 331.708 355.276 342.742 352.319C365.336 346.265 389.629 352.764 406.145 369.28Z" fill="white"/>
</g>
<path d="M642.318 248.779C642.278 248.587 642.206 248.277 642.09 247.923C642.071 247.833 642.044 247.718 642.013 247.598C641.953 247.37 641.839 246.98 641.625 246.535C641.617 246.516 641.606 246.487 641.586 246.437C641.571 246.401 641.549 246.346 641.524 246.283C641.507 246.241 641.488 246.195 641.468 246.148C641.427 246.051 641.366 245.91 641.289 245.751C641.289 245.75 641.288 245.749 641.288 245.748C641.28 245.729 641.269 245.701 641.251 245.656C641.242 245.632 641.229 245.6 641.214 245.564C641.191 245.506 641.163 245.437 641.133 245.367C641.118 245.33 641.1 245.287 641.079 245.239C640.894 244.743 640.684 244.315 640.432 243.894C640.395 243.815 640.358 243.742 640.323 243.676C640.268 243.57 640.212 243.471 640.166 243.391L640.021 243.1C639.673 242.404 639.32 241.864 638.951 241.358C638.708 240.965 638.456 240.654 638.251 240.424C638.234 240.4 638.218 240.378 638.202 240.357L638.119 240.19L637.805 239.79L532.758 106.166L532.741 106.143L532.723 106.121C528.108 100.388 521.217 97 513.757 97H237.355C229.895 97 223.004 100.388 218.389 106.121L218.373 106.142L218.356 106.162L113.319 239.521C112.947 239.941 112.676 240.351 112.492 240.667L112.124 241.035L111.826 241.631C111.812 241.65 111.795 241.675 111.774 241.705C111.767 241.714 111.759 241.726 111.75 241.738C111.618 241.921 111.274 242.4 110.98 242.989L110.834 243.279C110.788 243.359 110.733 243.458 110.677 243.564C110.597 243.718 110.505 243.906 110.414 244.127C110.364 244.213 110.297 244.33 110.231 244.457C110.145 244.621 110.046 244.825 109.949 245.065C109.916 245.139 109.889 245.203 109.867 245.255C109.818 245.371 109.773 245.483 109.749 245.545C109.73 245.592 109.719 245.62 109.711 245.639C109.634 245.799 109.573 245.94 109.532 246.037C109.486 246.146 109.443 246.253 109.418 246.316L109.414 246.326C109.395 246.373 109.384 246.402 109.376 246.421C109.183 246.82 108.89 247.522 108.748 248.377C108.711 248.528 108.685 248.652 108.668 248.738C108.61 248.908 108.569 249.053 108.541 249.161C108.509 249.28 108.483 249.396 108.463 249.486C108.184 250.341 108.121 251.164 108.109 251.676C108.106 251.692 108.102 251.71 108.099 251.727C108.054 251.969 107.996 252.348 107.996 252.81C107.996 252.813 107.995 252.841 107.991 252.904C107.984 252.992 107.975 253.093 107.961 253.256L107.956 253.308C107.931 253.578 107.884 254.088 107.884 254.602V629.799C107.884 643.147 118.7 654 131.973 654H618.803C632.244 654 643.116 643.203 643.116 629.911V254.713L643.116 254.621C643.117 254.212 643.119 253.38 643 252.502C642.985 252.205 642.943 251.777 642.824 251.287C642.807 251.164 642.79 251.052 642.782 251.001L642.779 250.981C642.754 250.115 642.534 249.341 642.318 248.779ZM641.636 246.56C641.635 246.559 641.635 246.559 641.635 246.558C641.638 246.565 641.638 246.566 641.636 246.56ZM641.301 245.779C641.3 245.778 641.3 245.777 641.3 245.777C641.303 245.784 641.303 245.785 641.301 245.779ZM501.956 145.29L569.195 230.513H399.645V145.29H501.956ZM181.907 230.513L249.046 145.29H351.355V230.513H181.907ZM156.286 605.71V278.803H594.826V605.71H156.286Z" fill="white" stroke="white" stroke-width="10"/>
<defs>
<linearGradient id="paint0_linear_29_11" x1="7.68155e-06" y1="751" x2="751" y2="-3.70815e-05" gradientUnits="userSpaceOnUse">
<stop stop-color="#F06844"/>
<stop offset="0.203125" stop-color="#EE4C54"/>
<stop offset="0.453125" stop-color="#D45E95"/>
<stop offset="0.640625" stop-color="#9C6CA6"/>
<stop offset="0.864583" stop-color="#6583C1"/>
</linearGradient>
<clipPath id="clip0_29_11">
<rect width="283.502" height="283.502" fill="white" transform="translate(201 350.376) rotate(-15)"/>
</clipPath>
</defs>
</svg>
